<mxfile host="app.diagrams.net" modified="2023-10-13T17:48:37.091Z" agent="Mozilla/5.0 (Windows NT 10.0; Win64; x64) AppleWebKit/537.36 (KHTML, like Gecko) Chrome/117.0.0.0 Safari/537.36" version="21.8.2" etag="y9wBjpfn8U3-q6xD_0UX" type="github">
  <diagram name="Page-1" id="9QkT-dfquWBo1i7XGJ58">
    <mxGraphModel>
      <root>
        <mxCell id="0" />
        <mxCell id="1" parent="0" />
      </root>
    </mxGraphModel>
  </diagram>
</mxfile>
